<svg xmlns="http://www.w3.org/2000/svg" width="512" height="512" viewBox="0 0 512 512" version="1.1">
	<path d="M 252.500 16.018 C 246.450 16.437, 230.250 17.120, 216.500 17.534 C 199.826 18.037, 190.001 18.755, 187 19.691 C 184.525 20.462, 179.989 21.477, 176.920 21.947 C 170.668 22.903, 158.676 29.290, 137.926 42.717 C 129.723 48.025, 108.737 72.009, 101.585 84.250 C 100.059 86.862, 98.440 89, 97.988 89 C 96.926 89, 91.316 100.593, 90.487 104.500 C 90.137 106.150, 89.032 109.975, 88.031 113 C 87.031 116.025, 85.727 122.325, 85.134 127 C 84.540 131.675, 83.603 137.750, 83.051 140.500 C 81.082 150.306, 79.728 171.772, 80.272 184.533 C 80.918 199.655, 83.290 211.672, 87.669 222 C 88.436 223.809, 90.860 230.054, 94.462 239.500 C 95.930 243.350, 97.551 246.928, 98.065 247.450 C 98.579 247.972, 99.032 249.772, 99.070 251.450 C 99.183 256.325, 100.167 257.789, 107.536 264.038 C 115.896 271.127, 122.535 274.889, 129.971 276.748 C 133.012 277.508, 137.300 278.586, 139.500 279.143 C 143.635 280.190, 154.051 279.655, 164.472 277.860 C 172.752 276.434, 182.545 271.613, 187.764 266.394 C 190.181 263.977, 192.819 262, 193.627 262 C 195.230 262, 199.918 266.851, 199.968 268.563 C 199.986 269.148, 201.350 270.919, 203 272.500 C 205.745 275.130, 206 275.940, 206 282.029 L 206 288.683 199.750 290.509 C 192.808 292.537, 178.778 298.054, 178 299.062 C 177.725 299.418, 172.100 302.777, 165.500 306.527 C 153.037 313.606, 148.001 317.406, 137.780 327.443 C 134.452 330.712, 130.485 334.087, 128.966 334.943 C 122.727 338.459, 118.025 342.112, 115.122 345.701 C 107.756 354.806, 104.987 359.242, 103.571 364.205 C 100.796 373.931, 97.908 392.383, 97.421 403.500 C 97.156 409.550, 96.768 417.425, 96.559 421 C 95.674 436.162, 99.142 473.974, 101.799 478.119 C 104.780 482.771, 111.802 489.804, 114.191 490.529 C 115.461 490.914, 117.443 492.091, 118.595 493.143 C 123.625 497.738, 157.001 500.116, 167.314 496.615 C 169.930 495.727, 173.359 495, 174.934 495 C 176.542 495, 180.044 493.490, 182.912 491.559 L 188.025 488.119 190.520 490.431 C 193.617 493.301, 201.635 494.909, 213 494.940 C 217.675 494.953, 223.531 495.344, 226.012 495.808 C 228.494 496.273, 233.669 496.280, 237.512 495.823 C 241.356 495.367, 253.725 494.626, 265 494.176 C 280.121 493.573, 286.943 492.892, 291 491.579 C 301.101 488.309, 301.985 488.006, 304.866 486.831 C 307.269 485.851, 308.923 486.047, 315.116 488.042 C 321.868 490.217, 324.125 490.415, 341.500 490.356 C 357.831 490.300, 361.606 489.984, 368.373 488.108 C 372.703 486.907, 377.518 485.266, 379.073 484.462 C 380.628 483.658, 382.807 483, 383.916 483 C 387.035 483, 392.667 477.410, 395.318 471.682 C 399.513 462.621, 400.065 460.872, 401.021 453.610 C 401.536 449.700, 402.893 440.425, 404.037 433 C 405.904 420.883, 406.050 416.888, 405.464 394 C 404.836 369.437, 404.481 365.868, 401.688 356 C 399.642 348.774, 392.192 335.040, 389.721 333.939 C 387.060 332.753, 380.903 328.404, 379.489 326.710 C 377.630 324.486, 372.013 320.932, 362.716 316.097 C 357.647 313.462, 352.001 310.387, 350.168 309.264 C 348.336 308.141, 344.286 306.472, 341.168 305.555 C 338.051 304.637, 329.200 301.894, 321.500 299.458 C 313.800 297.023, 304.575 294.368, 301 293.559 C 283.796 289.666, 283.732 289.640, 282.395 285.940 C 280.484 280.650, 280.713 279.610, 284.834 274.891 C 286.943 272.476, 289.948 268.250, 291.512 265.500 C 293.076 262.750, 294.508 260.306, 294.693 260.068 C 294.878 259.831, 296.486 261.041, 298.265 262.758 C 300.044 264.474, 303.844 266.961, 306.709 268.283 C 309.574 269.605, 312.612 271.263, 313.459 271.966 C 314.307 272.670, 319.693 273.856, 325.428 274.604 C 334.361 275.767, 336.434 275.758, 339.888 274.539 C 342.736 273.535, 344.856 273.385, 347.105 274.030 C 351.177 275.198, 355.933 274.111, 368 269.254 C 382.213 263.534, 387.626 259.997, 398.600 249.261 C 406.527 241.506, 409.264 238.061, 411.920 232.500 C 413.758 228.650, 416.510 224.150, 418.035 222.500 C 419.560 220.850, 421.544 217.296, 422.442 214.602 C 423.341 211.908, 425.184 207.282, 426.538 204.322 C 427.965 201.203, 429 197.092, 429 194.542 C 429 191.870, 429.619 189.524, 430.576 188.566 C 431.937 187.205, 432.087 184.360, 431.674 167.745 C 431.195 148.474, 429.742 137.626, 426.752 131 C 424.364 125.709, 422.938 120.636, 422.029 114.202 C 421.195 108.302, 420.283 106.568, 408.500 88.469 C 405.750 84.245, 402.813 79.599, 401.973 78.145 C 401.133 76.690, 399.210 74.185, 397.699 72.578 C 396.188 70.971, 394.696 68.496, 394.383 67.078 C 394.070 65.660, 393.627 63.796, 393.399 62.935 C 393.170 62.075, 391.143 60.050, 388.895 58.435 C 383.302 54.419, 375.580 47.875, 369 41.575 C 363.573 36.378, 356.876 31.572, 352 29.372 C 350.625 28.752, 346.575 26.860, 343 25.168 C 339.425 23.476, 333.626 21.175, 330.114 20.055 C 326.602 18.935, 323.051 17.458, 322.224 16.771 C 320.455 15.303, 270.602 14.764, 252.500 16.018 M 267 152.121 C 256.275 152.463, 245.700 153.254, 243.500 153.880 C 239.669 154.970, 217.804 156.750, 202 157.259 C 194.623 157.496, 194.506 157.541, 194.858 160 C 195.055 161.375, 195.064 173.525, 194.878 187 C 194.090 244.122, 194.714 254.885, 198.828 255.079 C 199.764 255.123, 199.977 255.371, 199.312 255.642 C 197.914 256.211, 202.093 264.286, 206.607 269.737 C 210.937 274.966, 222.366 281.865, 229.500 283.557 C 231.150 283.948, 233.176 284.852, 234.002 285.565 C 237.530 288.609, 240.908 289.045, 248.178 287.391 C 253.576 286.163, 255.806 286.046, 257.665 286.893 C 262.010 288.873, 264.942 288.204, 268.514 284.416 C 274.180 278.409, 274.378 278.088, 272.057 278.695 C 269.157 279.454, 269.494 278.234, 273.250 274.367 C 277.364 270.131, 278.512 270.089, 276.409 274.250 C 275.103 276.835, 276.100 276.140, 281.285 270.848 C 284.870 267.190, 288.127 263.140, 288.523 261.848 C 288.919 260.557, 290.774 256.736, 292.647 253.358 L 296.051 247.217 296.018 229.358 C 296 219.536, 296.344 206.325, 296.781 200 C 297.515 189.397, 296.372 167.835, 294.415 155.357 C 293.786 151.344, 293.652 151.219, 290.133 151.357 C 288.135 151.436, 277.725 151.779, 267 152.121 M 256.537 163.499 C 248.671 166.301, 242.186 178, 248.500 178 C 249.875 178, 251 177.635, 251 177.190 C 251 175.231, 257.572 169.923, 261.211 168.943 C 264.795 167.978, 265.592 168.126, 269.015 170.391 C 272.283 172.554, 272.998 172.708, 274.025 171.470 C 275.986 169.107, 274.369 165.546, 270.497 163.700 C 266.217 161.659, 261.879 161.597, 256.537 163.499 M 257.321 185.488 C 254.687 187.333, 252.141 194.647, 252.969 197.992 C 253.309 199.363, 254.683 201.031, 256.024 201.699 C 258.049 202.709, 258.973 202.617, 261.481 201.156 C 264.267 199.533, 264.523 198.912, 264.800 193.111 C 265.211 184.493, 262.576 181.807, 257.321 185.488 M 211.852 190.982 C 204.777 191.533, 201 193.682, 201 197.155 C 201 199.213, 202.231 199.351, 208.986 198.048 C 212.972 197.279, 213.257 197.339, 211.544 198.591 C 210.485 199.366, 208.873 200, 207.964 200 C 205.710 200, 203 203.182, 203 205.829 C 203 208.802, 205.270 208.598, 212.391 204.987 C 216.529 202.889, 219.728 202, 223.141 202 C 227.985 202, 228 201.989, 228 198.655 C 228 192.710, 222.602 190.145, 211.852 190.982 M 235.014 214.577 C 234.427 216.185, 233.429 218.798, 232.796 220.384 C 231.810 222.857, 231.913 223.463, 233.514 224.634 C 237.188 227.320, 238.989 226.393, 239.118 221.750 C 239.281 215.906, 239.055 214.718, 237.462 213.077 C 236.276 211.854, 235.932 212.064, 235.014 214.577 M 260 220.014 C 260 221.121, 260.541 222.893, 261.202 223.952 C 263.539 227.694, 260.647 230.778, 246.785 239.326 C 243.231 241.518, 224.448 241.614, 218.500 239.471 C 216.300 238.679, 214.387 238.023, 214.250 238.015 C 213.664 237.980, 214.095 242.589, 214.765 243.520 C 217.365 247.131, 231.105 248.088, 245.050 245.629 C 253.776 244.091, 260.934 239.765, 264.985 233.584 C 267.356 229.966, 267.662 229.819, 271.691 230.371 C 274.013 230.689, 276.178 230.520, 276.503 229.996 C 277.680 228.091, 274.875 225.044, 270.980 223.995 C 268.670 223.373, 266.317 221.887, 265.382 220.461 C 263.397 217.431, 260 217.149, 260 220.014 M 250.329 257.062 C 250.934 258.662, 251.796 259.604, 252.247 259.153 C 253.298 258.102, 252.235 255.304, 250.538 254.653 C 249.496 254.253, 249.454 254.742, 250.329 257.062 M 240.580 258.155 C 237.742 259.652, 235.485 260.089, 232.400 259.742 C 227.925 259.237, 226 260.248, 226 263.102 C 226 265.040, 230.693 267, 235.333 267 C 242.275 267, 250.451 260.586, 247.762 257.250 C 246.407 255.568, 245.198 255.720, 240.580 258.155 M 295.667 267.667 C 294.202 269.132, 295.045 272, 296.941 272 C 299.297 272, 300.215 270.725, 299.396 268.590 C 298.770 266.957, 296.851 266.482, 295.667 267.667 M 304 274 C 304 274.550, 304.450 275, 305 275 C 305.550 275, 306 274.550, 306 274 C 306 273.450, 305.550 273, 305 273 C 304.450 273, 304 273.450, 304 274 M 212 285.766 C 212 291.906, 214.888 295.959, 221.919 299.687 C 226.986 302.373, 229.302 303, 234.156 303 C 237.903 303, 240.657 302.485, 241.518 301.625 C 242.599 300.544, 243.816 300.470, 247.197 301.278 C 255.138 303.178, 262.283 302.422, 268.255 299.051 C 271.229 297.373, 274.360 296, 275.214 296 C 276.813 296, 277.962 293.202, 277.986 289.250 C 278.004 286.402, 277.180 286.429, 271.467 289.467 C 268.194 291.207, 265.307 291.918, 261.664 291.882 C 258.824 291.854, 252.605 292.387, 247.845 293.066 C 239.257 294.292, 239.155 294.281, 234.667 291.651 C 232.179 290.193, 229.424 289, 228.544 289 C 227.664 289, 223.758 287.425, 219.863 285.500 C 215.967 283.575, 212.605 282, 212.390 282 C 212.176 282, 212 283.695, 212 285.766 M 200.684 311.750 C 200.446 312.163, 200.612 313.400, 201.055 314.500 C 201.757 316.246, 201.868 316.151, 201.930 313.750 C 201.999 311.037, 201.531 310.286, 200.684 311.750 M 249.500 336 C 249.840 336.550, 250.316 337, 250.559 337 C 250.802 337, 251 336.550, 251 336 C 251 335.450, 250.523 335, 249.941 335 C 249.359 335, 249.160 335.450, 249.500 336 M 353.015 350.250 C 353.031 354.741, 354.298 357.946, 355.370 356.210 C 356.228 354.822, 354.927 346, 353.864 346 C 353.389 346, 353.007 347.913, 353.015 350.250 M 119.250 354.662 C 118.563 354.940, 118 356.084, 118 357.206 C 118 358.878, 117.738 359.027, 116.544 358.036 C 115.743 357.372, 114.566 357.150, 113.930 357.544 C 112.378 358.502, 113.395 365.824, 115.351 367.780 C 116.691 369.119, 116.927 368.912, 117.507 365.892 C 118.315 361.683, 122.220 358.356, 123.933 360.419 C 124.554 361.168, 125.162 363.180, 125.282 364.889 C 125.499 367.981, 126.360 368.844, 127.457 367.069 C 127.774 366.557, 127.604 365.873, 127.079 365.549 C 126.555 365.225, 126.288 362.976, 126.486 360.551 C 126.824 356.401, 126.664 356.079, 123.773 355.071 C 122.084 354.482, 120.656 354.036, 120.601 354.079 C 120.545 354.122, 119.938 354.385, 119.250 354.662 M 376 363.941 C 376 364.459, 376.450 365.160, 377 365.500 C 377.550 365.840, 378 365.416, 378 364.559 C 378 363.702, 377.550 363, 377 363 C 376.450 363, 376 363.423, 376 363.941 M 171.250 379.662 C 170.357 380.023, 170 383.295, 170 391.129 L 170 402.091 176.750 401.796 L 183.500 401.500 183.791 393.816 C 183.985 388.678, 183.588 384.950, 182.592 382.566 C 181.202 379.239, 180.814 379.005, 176.801 379.079 C 174.435 379.122, 171.938 379.385, 171.250 379.662 M 314.750 381.162 C 312.043 382.151, 311.615 382.903, 311.927 386.127 C 312.013 387.022, 311.390 388.020, 310.542 388.346 C 309.404 388.782, 309 390.420, 309 394.599 L 309 400.262 312.750 399.642 C 314.813 399.301, 318.188 399.017, 320.250 399.011 L 324 399 324 392.146 C 324 386.257, 323.655 384.920, 321.548 382.646 C 318.855 379.740, 318.722 379.712, 314.750 381.162 M 319.500 404.641 C 317.472 405.056, 313.853 405.962, 306.353 407.930 C 304.073 408.529, 301.950 409.689, 301.635 410.509 C 301.320 411.329, 300.111 412, 298.948 412 C 295.944 412, 297.050 414.222, 300.565 415.247 C 304.817 416.488, 321.123 415.175, 327.248 413.100 C 332.974 411.159, 334.436 408.578, 331.482 405.625 C 329.931 404.074, 324.464 403.625, 319.500 404.641 M 160.500 411.645 C 148.661 415.422, 145.387 419.552, 149.858 425.073 C 151.581 427.201, 152.435 427.360, 161.612 427.264 C 168.057 427.196, 173.076 426.587, 176.004 425.519 C 178.477 424.616, 181.963 423.434, 183.750 422.892 C 186.749 421.982, 187 421.579, 187 417.676 C 187 415.349, 186.299 412.445, 185.443 411.223 C 184.058 409.245, 183.038 409.005, 176.193 409.047 C 170.808 409.080, 166.100 409.859, 160.500 411.645 M 326.500 420.726 C 323.554 421.894, 319.124 422.300, 309.684 422.265 C 297.070 422.219, 296.853 422.256, 295.958 424.609 C 295.415 426.038, 295.414 427.958, 295.954 429.380 C 296.846 431.725, 297.019 431.754, 307.983 431.350 C 314.102 431.124, 320.996 430.325, 323.304 429.574 C 325.612 428.822, 329.172 427.918, 331.215 427.565 C 336.045 426.730, 336.590 425.637, 333.995 421.993 C 331.562 418.577, 331.816 418.619, 326.500 420.726 M 179 431.747 C 176.326 433.021, 172.500 433.429, 162.785 433.473 C 154.964 433.509, 149.647 433.953, 148.972 434.628 C 147.470 436.130, 147.421 441.821, 148.896 443.296 C 149.697 444.097, 154.014 444.500, 161.800 444.500 C 172.616 444.500, 173.935 444.286, 179.256 441.674 C 185.541 438.587, 187.495 436.110, 186.566 432.407 C 185.856 429.580, 183.904 429.409, 179 431.747 M 112.753 435.201 C 112.229 436.567, 112.687 443.494, 113.443 445.626 C 113.666 446.254, 114.985 446.534, 116.421 446.260 C 119.567 445.658, 119.893 442.574, 117 440.768 C 115.900 440.081, 114.993 438.840, 114.985 438.009 C 114.976 437.179, 114.589 435.900, 114.124 435.166 C 113.423 434.060, 113.189 434.066, 112.753 435.201 M 322 437.066 C 313.974 439.282, 310.289 439.827, 306.358 439.381 C 299.210 438.569, 297 439.439, 297 443.067 C 297 445.582, 297.382 446, 299.682 446 C 311.681 446, 337.925 439.986, 337.976 437.225 C 337.995 436.244, 333.635 433.656, 332.685 434.083 C 332.583 434.129, 327.775 435.471, 322 437.066 M 177.011 447.246 C 173.975 449.207, 172.118 449.514, 162.710 449.611 L 151.897 449.721 149.919 453.412 C 148.207 456.606, 148.114 457.466, 149.228 459.790 C 150.809 463.089, 153.140 463.632, 157.311 461.672 C 159.065 460.847, 162.750 459.873, 165.500 459.507 C 172.111 458.627, 182.557 455.238, 183.993 453.509 C 184.622 452.751, 184.993 450.639, 184.818 448.815 C 184.416 444.627, 181.860 444.113, 177.011 447.246 M 229 448.842 C 229 452.564, 227.067 455.734, 225.658 454.325 C 225.296 453.963, 225 454.165, 225 454.774 C 225 455.384, 225.450 456.160, 226 456.500 C 226.550 456.840, 227 458.024, 227 459.132 C 227 460.483, 227.555 461.040, 228.685 460.822 C 229.766 460.614, 230.834 458.706, 231.666 455.499 C 233.430 448.692, 233.329 447.246, 231 446 C 229.158 445.014, 229 445.240, 229 448.842 M 329.859 447.474 C 328.980 448.353, 316.337 450.943, 308.133 451.924 C 300.502 452.837, 295.891 455.254, 299.291 456.558 C 300.196 456.905, 302.941 456.424, 305.391 455.488 C 310.008 453.725, 312 454.058, 312 456.593 C 312 458.152, 315.445 458.009, 328 455.930 C 333.557 455.010, 338.575 451.247, 337.719 448.640 C 337.328 447.448, 330.847 446.486, 329.859 447.474 M 331 451.750 C 331 452.529, 331.534 452.989, 332.188 452.771 C 334.001 452.166, 334.257 450.333, 332.528 450.333 C 331.688 450.333, 331 450.971, 331 451.750 M 123.015 452.750 C 123.007 453.988, 123.450 455, 124 455 C 125.253 455, 125.253 453.939, 124 452 C 123.216 450.787, 123.028 450.931, 123.015 452.750 M 237 455.476 C 237 456.288, 237.898 458.425, 238.996 460.226 C 240.094 462.027, 240.994 464.443, 240.996 465.595 C 240.998 466.747, 241.871 468.479, 242.936 469.442 C 244.810 471.138, 244.893 471.087, 245.484 467.847 C 246.431 462.665, 245.664 460.271, 242.010 457.009 C 238.264 453.665, 237 453.278, 237 455.476 M 358.079 457.583 C 358.127 458.748, 358.364 458.985, 358.683 458.188 C 358.972 457.466, 358.936 456.603, 358.604 456.271 C 358.272 455.939, 358.036 456.529, 358.079 457.583 M 363.821 461.080 C 363.421 465.276, 364.327 467.195, 365.395 464.412 C 366.292 462.074, 366.128 458.197, 365.105 457.565 C 364.612 457.260, 364.034 458.842, 363.821 461.080 M 129.198 463.498 C 126.298 466.512, 126.166 471.031, 129 470.290 C 130.100 470.002, 131 469.369, 131 468.883 C 131 468.398, 131.675 468, 132.500 468 C 134.392 468, 134.567 462.432, 132.698 461.714 C 131.982 461.440, 130.407 462.242, 129.198 463.498 M 182.312 462.008 C 181.109 462.493, 177.284 463.372, 173.812 463.962 C 156.542 466.895, 151.036 469.324, 152.573 473.329 C 153.471 475.670, 156.711 475.973, 162.825 474.285 C 165.946 473.423, 170.750 472.419, 173.500 472.053 C 180.472 471.125, 188 467.597, 188 465.256 C 188 463.480, 186.206 460.930, 185.050 461.063 C 184.748 461.098, 183.516 461.523, 182.312 462.008 M 202 464.500 C 202 465.325, 202.450 466, 203 466 C 203.550 466, 204 465.325, 204 464.500 C 204 463.675, 203.550 463, 203 463 C 202.450 463, 202 463.675, 202 464.500 M 264.636 467.070 C 263.872 470.892, 266.675 480, 268.615 480 C 270.429 480, 270.372 477.134, 268.468 472.578 C 267.626 470.562, 267.136 468.589, 267.380 468.195 C 267.623 467.801, 267.245 466.688, 266.539 465.723 C 265.377 464.134, 265.198 464.260, 264.636 467.070 M 217.984 466.519 C 216.957 467.757, 217.027 468.372, 218.362 469.847 C 219.263 470.843, 220 472.860, 220 474.329 C 220 477.930, 222.756 477.863, 223.222 474.250 C 223.459 472.419, 223.919 473.672, 224.600 478 C 225.397 483.063, 225.327 485.108, 224.286 487.250 C 223.218 489.447, 223.205 489.997, 224.224 489.985 C 227.103 489.950, 228.448 487.865, 229.174 482.313 C 229.592 479.116, 230.220 474.833, 230.571 472.795 C 231.163 469.355, 231.008 469.040, 228.407 468.387 C 226.596 467.933, 225.467 468.098, 225.215 468.854 C 225.001 469.497, 224.009 470.460, 223.011 470.994 C 221.494 471.806, 221.281 471.640, 221.715 469.983 C 222 468.892, 222.617 468, 223.085 468 C 223.554 468, 223.678 467.325, 223.362 466.500 C 222.618 464.561, 219.600 464.572, 217.984 466.519 M 211.503 467.991 C 210.821 470.138, 211.544 472, 213.059 472 C 213.577 472, 214 470.650, 214 469 C 214 465.605, 212.458 464.982, 211.503 467.991 M 310 468.441 C 310 470.480, 311.960 471.440, 313.329 470.071 C 314.201 469.199, 314.119 468.687, 312.992 467.974 C 310.881 466.640, 310 466.777, 310 468.441 M 245.079 473.583 C 245.127 474.748, 245.364 474.985, 245.683 474.188 C 245.972 473.466, 245.936 472.603, 245.604 472.271 C 245.272 471.939, 245.036 472.529, 245.079 473.583 M 143.428 474.328 C 142.791 475.988, 144.519 480.662, 146.504 482.647 C 147.832 483.975, 148.168 483.974, 149.500 482.643 C 151.487 480.656, 151.446 480.452, 148.250 476.447 C 145.279 472.723, 144.222 472.259, 143.428 474.328 M 248.246 473.831 C 246.714 474.798, 246.991 479.748, 248.654 481.127 C 249.502 481.832, 250.149 481.590, 250.832 480.314 C 252.122 477.904, 250.043 472.695, 248.246 473.831 M 239.051 477.500 C 239.026 479.935, 240.545 482.545, 241.287 481.344 C 241.583 480.866, 241.205 479.356, 240.448 477.987 C 239.229 475.785, 239.069 475.729, 239.051 477.500 M 352.767 477.567 C 352.421 477.913, 352.380 478.827, 352.676 479.598 C 353.410 481.512, 358 481.428, 358 479.500 C 358 478.675, 357.587 478, 357.082 478 C 356.577 478, 355.541 477.761, 354.780 477.469 C 354.018 477.177, 353.113 477.221, 352.767 477.567 M 126 479.500 C 126 480.325, 126.675 481, 127.500 481 C 128.325 481, 129 480.325, 129 479.500 C 129 478.675, 128.325 478, 127.500 478 C 126.675 478, 126 478.675, 126 479.500 M 139.250 481.718 C 138.563 481.965, 138 483.696, 138 485.564 C 138 488.371, 138.443 489.073, 140.547 489.601 C 143.897 490.442, 144.132 490.061, 142.936 485.730 C 141.840 481.760, 141.169 481.030, 139.250 481.718" stroke="none" fill="black" fill-rule="evenodd"/>
</svg>